<svg id='Coupon_24' width='24' height='24' viewBox='0 0 24 24' xmlns='http://www.w3.org/2000/svg' xmlns:xlink='http://www.w3.org/1999/xlink'><rect width='24' height='24' stroke='none' fill='#000000' opacity='0'/>


<g transform="matrix(0.67 0 0 0.67 12 12)" >
<g style="" >
<g transform="matrix(1 0 0 1 3 5)" >
<path style="stroke: none; stroke-width: 1; stroke-dasharray: none; stroke-linecap: butt; stroke-dashoffset: 0; stroke-linejoin: miter; stroke-miterlimit: 4; fill: rgb(214,227,237); fill-rule: nonzero; opacity: 1;" transform=" translate(-18, -20)" d="M 7.5 28.5 L 7.5 14 C 7.5 12.622 8.621 11.5 10 11.5 L 28.5 11.5 L 28.5 28.5 L 7.5 28.5 z" stroke-linecap="round" />
</g>
<g transform="matrix(1 0 0 1 3 5)" >
<path style="stroke: none; stroke-width: 1; stroke-dasharray: none; stroke-linecap: butt; stroke-dashoffset: 0; stroke-linejoin: miter; stroke-miterlimit: 4; fill: rgb(120,139,156); fill-rule: nonzero; opacity: 1;" transform=" translate(-18, -20)" d="M 28 12 L 28 28 L 8 28 L 8 14 C 8 12.897 8.897 12 10 12 L 28 12 M 29 11 L 10 11 C 8.343 11 7 12.343 7 14 L 7 29 L 29 29 L 29 11 L 29 11 z" stroke-linecap="round" />
</g>
<g transform="matrix(1 0 0 1 3 5)" >
<path style="stroke: none; stroke-width: 1; stroke-dasharray: none; stroke-linecap: butt; stroke-dashoffset: 0; stroke-linejoin: miter; stroke-miterlimit: 4; fill: rgb(214,227,237); fill-rule: nonzero; opacity: 1;" transform=" translate(-18, -20)" d="M 9 11 L 11 11 L 11 29 L 9 29 z M 13 11 L 15 11 L 15 29 L 13 29 z M 17 11 L 19 11 L 19 29 L 17 29 z M 21 11 L 23 11 L 23 29 L 21 29 z M 25 11 L 27 11 L 27 29 L 25 29 z" stroke-linecap="round" />
</g>
<g transform="matrix(1 0 0 1 3 5)" >
<path style="stroke: none; stroke-width: 1; stroke-dasharray: none; stroke-linecap: butt; stroke-dashoffset: 0; stroke-linejoin: miter; stroke-miterlimit: 4; fill: rgb(214,227,237); fill-rule: nonzero; opacity: 1;" transform=" translate(-18, -20)" d="M 7 13 L 29 13 L 29 15 L 7 15 z M 7 17 L 29 17 L 29 19 L 7 19 z M 7 21 L 29 21 L 29 23 L 7 23 z M 7 25 L 29 25 L 29 27 L 7 27 z" stroke-linecap="round" />
</g>
<g transform="matrix(1 0 0 1 -0.75 -1.9)" >
<path style="stroke: none; stroke-width: 1; stroke-dasharray: none; stroke-linecap: butt; stroke-dashoffset: 0; stroke-linejoin: miter; stroke-miterlimit: 4; fill: rgb(220,213,242); fill-rule: nonzero; opacity: 1;" transform=" translate(-14.25, -13.1)" d="M 18.657 19.5 C 17.721 19.5 16.843 19.136 16.181 18.475 L 6.707 9 L 9 6.707 L 21.793 19.5 L 18.657 19.5 z" stroke-linecap="round" />
</g>
<g transform="matrix(1 0 0 1 -0.5 -2)" >
<path style="stroke: none; stroke-width: 1; stroke-dasharray: none; stroke-linecap: butt; stroke-dashoffset: 0; stroke-linejoin: miter; stroke-miterlimit: 4; fill: rgb(139,117,161); fill-rule: nonzero; opacity: 1;" transform=" translate(-14.5, -13)" d="M 9 7.414 L 20.586 19 L 18.657 19 C 17.856 19 17.102 18.688 16.536 18.121 L 7.414 9 L 9 7.414 M 9 6 L 6 9 L 15.828 18.828 C 16.578 19.578 17.596 20 18.656 20 L 23 20 L 9 6 L 9 6 z" stroke-linecap="round" />
</g>
<g transform="matrix(1 0 0 1 -9.6 -9.6)" >
<path style="stroke: none; stroke-width: 1; stroke-dasharray: none; stroke-linecap: butt; stroke-dashoffset: 0; stroke-linejoin: miter; stroke-miterlimit: 4; fill: rgb(247,143,143); fill-rule: nonzero; opacity: 1;" transform=" translate(-5.4, -5.4)" d="M 6.051 8.343 L 5.781000000000001 8.405 C 5.501 8.469 5.245 8.5 5 8.5 C 3.07 8.5 1.5 6.93 1.5 5 C 1.5 3.0700000000000003 3.07 1.5 5 1.5 C 6.93 1.5 8.5 3.07 8.5 5 C 8.5 5.245 8.469 5.5 8.405 5.781 L 8.344 6.05 L 9.293 7 L 7 9.293 L 6.051 8.343 z M 5 3.5 C 4.173 3.5 3.5 4.173 3.5 5 C 3.5 5.827 4.173 6.5 5 6.5 C 5.827 6.5 6.5 5.827 6.5 5 C 6.5 4.173 5.827 3.5 5 3.5 z" stroke-linecap="round" />
</g>
<g transform="matrix(1 0 0 1 -9.5 -9.5)" >
<path style="stroke: none; stroke-width: 1; stroke-dasharray: none; stroke-linecap: butt; stroke-dashoffset: 0; stroke-linejoin: miter; stroke-miterlimit: 4; fill: rgb(199,67,67); fill-rule: nonzero; opacity: 1;" transform=" translate(-5.5, -5.5)" d="M 5 2 C 6.654 2 8 3.346 8 5 C 8 5.207 7.973 5.426 7.917 5.6690000000000005 L 7.794 6.208 L 8.184999999999999 6.599 L 8.586 7 L 7 8.586 L 6.599 8.185 L 6.208 7.794 L 5.669 7.917 C 5.426 7.973 5.207 8 5 8 C 3.346 8 2 6.654 2 5 C 2 3.346 3.346 2 5 2 M 5 7 C 6.103 7 7 6.103 7 5 C 7 3.8970000000000002 6.103 3 5 3 C 3.8970000000000002 3 3 3.897 3 5 C 3 6.103 3.897 7 5 7 M 5 1 C 2.791 1 1 2.791 1 5 C 1 7.209 2.791 9 5 9 C 5.308 9 5.604 8.958 5.892 8.892 L 7 10 L 10 7 L 8.892 5.892 C 8.958 5.604 9 5.308 9 5 C 9 2.791 7.209 1 5 1 L 5 1 z M 5 6 C 4.448 6 4 5.552 4 5 C 4 4.448 4.448 4 5 4 C 5.552 4 6 4.448 6 5 C 6 5.552 5.552 6 5 6 L 5 6 z" stroke-linecap="round" />
</g>
<g transform="matrix(0.71 -0.71 0.71 0.71 -2.77 -2.77)" >
<path style="stroke: none; stroke-width: 1; stroke-dasharray: none; stroke-linecap: butt; stroke-dashoffset: 0; stroke-linejoin: miter; stroke-miterlimit: 4; fill: rgb(139,117,161); fill-rule: nonzero; opacity: 1;" transform=" translate(-12.23, -12.23)" d="M 10.299 10.565 L 14.154 10.565 L 14.154 13.888 L 10.299 13.888 z" stroke-linecap="round" />
</g>
<g transform="matrix(1 0 0 1 -0.75 -6.1)" >
<path style="stroke: none; stroke-width: 1; stroke-dasharray: none; stroke-linecap: butt; stroke-dashoffset: 0; stroke-linejoin: miter; stroke-miterlimit: 4; fill: rgb(220,213,242); fill-rule: nonzero; opacity: 1;" transform=" translate(-14.25, -8.9)" d="M 6.707 13 L 16.182 3.5250000000000004 C 16.843 2.8640000000000003 17.721999999999998 2.5000000000000004 18.657999999999998 2.5000000000000004 L 21.793999999999997 2.5000000000000004 L 9 15.293 L 6.707 13 z" stroke-linecap="round" />
</g>
<g transform="matrix(1 0 0 1 -0.5 -6)" >
<path style="stroke: none; stroke-width: 1; stroke-dasharray: none; stroke-linecap: butt; stroke-dashoffset: 0; stroke-linejoin: miter; stroke-miterlimit: 4; fill: rgb(139,117,161); fill-rule: nonzero; opacity: 1;" transform=" translate(-14.5, -9)" d="M 20.586 3 L 9 14.586 L 7.414 13 L 16.535 3.8789999999999996 C 17.102 3.312 17.856 3 18.657 3 L 20.586 3 M 23 2 L 18.657 2 C 17.596 2 16.579 2.421 15.829 3.1719999999999997 L 6 13 L 9 16 L 23 2 L 23 2 z" stroke-linecap="round" />
</g>
<g transform="matrix(1 0 0 1 -9.6 1.6)" >
<path style="stroke: none; stroke-width: 1; stroke-dasharray: none; stroke-linecap: butt; stroke-dashoffset: 0; stroke-linejoin: miter; stroke-miterlimit: 4; fill: rgb(247,143,143); fill-rule: nonzero; opacity: 1;" transform=" translate(-5.4, -16.6)" d="M 5 20.5 C 3.0700000000000003 20.5 1.5 18.93 1.5 17 C 1.5 15.07 3.0700000000000003 13.5 5 13.5 C 5.245 13.5 5.501 13.531 5.781 13.595 L 6.051 13.657 L 7 12.707 L 9.293 15 L 8.344 15.95 L 8.405999999999999 16.218999999999998 C 8.469 16.5 8.5 16.755 8.5 17 C 8.5 18.93 6.93 20.5 5 20.5 z M 5 15.5 C 4.173 15.5 3.5 16.173000000000002 3.5 17 C 3.5 17.826999999999998 4.173 18.5 5 18.5 C 5.827 18.5 6.5 17.826999999999998 6.5 17 C 6.5 16.173000000000002 5.827 15.5 5 15.5 z" stroke-linecap="round" />
</g>
<g transform="matrix(1 0 0 1 -9.5 1.5)" >
<path style="stroke: none; stroke-width: 1; stroke-dasharray: none; stroke-linecap: butt; stroke-dashoffset: 0; stroke-linejoin: miter; stroke-miterlimit: 4; fill: rgb(199,67,67); fill-rule: nonzero; opacity: 1;" transform=" translate(-5.5, -16.5)" d="M 7 13.414 L 8.586 15 L 8.185 15.401 L 7.7940000000000005 15.792 L 7.917000000000001 16.331 C 7.973 16.574 8 16.793 8 17 C 8 18.654 6.654 20 5 20 C 3.346 20 2 18.654 2 17 C 2 15.346 3.346 14 5 14 C 5.207 14 5.426 14.027 5.6690000000000005 14.083 L 6.208 14.206 L 6.599 13.815 L 7 13.414 M 5 19 C 6.103 19 7 18.103 7 17 C 7 15.896999999999998 6.103 15 5 15 C 3.8970000000000002 15 3 15.897 3 17 C 3 18.103 3.897 19 5 19 M 7 12 L 5.8919999999999995 13.108 C 5.604 13.042 5.308 13 5 13 C 2.791 13 1 14.791 1 17 C 1 19.209 2.791 21 5 21 C 7.209 21 9 19.209 9 17 C 9 16.692 8.958 16.396 8.892 16.108 L 10 15 L 7 12 L 7 12 z M 5 18 C 4.448 18 4 17.552 4 17 C 4 16.448 4.448 16 5 16 C 5.552 16 6 16.448 6 17 C 6 17.552 5.552 18 5 18 L 5 18 z" stroke-linecap="round" />
</g>
<g transform="matrix(1 0 0 1 -4 -4)" >
<path style="stroke: none; stroke-width: 1; stroke-dasharray: none; stroke-linecap: butt; stroke-dashoffset: 0; stroke-linejoin: miter; stroke-miterlimit: 4; fill: rgb(139,117,161); fill-rule: nonzero; opacity: 1;" transform=" translate(-11, -11)" d="M 11 10.5 C 10.723857625084603 10.5 10.5 10.723857625084603 10.5 11 C 10.5 11.276142374915397 10.723857625084603 11.5 11 11.5 C 11.276142374915397 11.5 11.5 11.276142374915397 11.5 11 C 11.5 10.723857625084603 11.276142374915397 10.5 11 10.5 Z" stroke-linecap="round" />
</g>
</g>
</g>
</svg>
